HIERARCHY
ROOT Hips
{
	OFFSET 0.00000 0.00000 0.00000
	CHANNELS 6 Xposition Yposition Zposition Zrotation Yrotation Xrotation 
	JOINT LHipJoint
	{
		OFFSET 0 0 0
		CHANNELS 3 Zrotation Yrotation Xrotation
		JOINT LeftHip
		{
			OFFSET 1.64577 -1.42384 0.94276
			CHANNELS 3 Zrotation Yrotation Xrotation
			JOINT LeftKnee
			{
				OFFSET 2.11538 -5.81197 0.00000
				CHANNELS 3 Zrotation Yrotation Xrotation
				JOINT LeftAnkle
				{
					OFFSET 2.36541 -6.49893 0.00000
					CHANNELS 3 Zrotation Yrotation Xrotation
					JOINT LeftToe
					{
						OFFSET 0.17759 -0.48793 1.73865
						CHANNELS 3 Zrotation Yrotation Xrotation
						End Site
						{
							OFFSET 0.00000 -0.00000 0.91205
						}
					}
				}
			}
		}
	}
	JOINT RHipJoint
	{
		OFFSET 0 0 0
		CHANNELS 3 Zrotation Yrotation Xrotation
		JOINT RightHip
		{
			OFFSET -1.43750 -1.42384 0.94276
			CHANNELS 3 Zrotation Yrotation Xrotation
			JOINT RightKnee
			{
				OFFSET -2.10480 -5.78291 0.00000
				CHANNELS 3 Zrotation Yrotation Xrotation
				JOINT RightAnkle
				{
					OFFSET -2.34880 -6.45329 0.00000
					CHANNELS 3 Zrotation Yrotation Xrotation
					JOINT RightToe
					{
						OFFSET -0.22842 -0.62757 1.80469
						CHANNELS 3 Zrotation Yrotation Xrotation
						End Site
						{
							OFFSET -0.00000 -0.00000 0.95886
						}
					}
				}
			}
		}
	}
	JOINT lowerback
	{
		OFFSET 0 0 0
		CHANNELS 3 Zrotation Yrotation Xrotation
		JOINT Chest
		{
			OFFSET 0.06217 1.93758 -0.49272
			CHANNELS 3 Zrotation Yrotation Xrotation
			JOINT Chest2
			{
				OFFSET -0.03114 2.03621 -0.05830
				CHANNELS 3 Zrotation Yrotation Xrotation
				JOINT lowerneck
				{
					OFFSET 0 0 0
					CHANNELS 3 Zrotation Yrotation Xrotation
					JOINT Neck
					{
						OFFSET 0.04421 1.41010 0.26562
						CHANNELS 3 Zrotation Yrotation Xrotation
						JOINT Head
						{
							OFFSET -0.13407 1.43847 0.06181
							CHANNELS 3 Zrotation Yrotation Xrotation
							End Site
							{
								OFFSET -0.04980 1.45844 -0.00689
							}
						}
					}
				}
				JOINT LeftCollar
				{
					OFFSET 0 0 0
					CHANNELS 3 Zrotation Yrotation Xrotation
					JOINT LeftShoulder
					{
						OFFSET 2.18382 1.47753 -0.35694
CHANNELS 3 Zrotation Xrotation Yrotation
						JOINT LeftElbow
						{
OFFSET 0 -5.054600 0.000000
CHANNELS 3 Zrotation Xrotation Yrotation
							JOINT LeftWrist
							{
OFFSET 0 -3.390130 0.000000
CHANNELS 3 Zrotation Xrotation Yrotation
								JOINT lhand
								{
									OFFSET 0 0 0
CHANNELS 3 Zrotation Xrotation Yrotation
									JOINT LFingers
									{
OFFSET 0 -0.572420 -0.000000
CHANNELS 3 Zrotation Xrotation Yrotation
										End Site
										{
OFFSET 0 -0.461500 -0.000000
										}
									}
								}
								JOINT LThumb
								{
OFFSET 0 0.000000 0.000000
CHANNELS 3 Zrotation Xrotation Yrotation
									End Site
									{
OFFSET 0 -0.468550 0.468550
									}
								}
							}
						}
					}
				}
				JOINT RightCollar
				{
					OFFSET 0 0 0
					CHANNELS 3 Zrotation Yrotation Xrotation
					JOINT RightShoulder
					{
						OFFSET -2.06033 1.72839 -0.47437
CHANNELS 3 Zrotation Xrotation Yrotation
						JOINT RightElbow
						{
OFFSET 0 -5.070100 0.000000
CHANNELS 3 Zrotation Xrotation Yrotation
							JOINT RightWrist
							{
OFFSET 0 -3.149570 -0.000000
CHANNELS 3 Zrotation Xrotation Yrotation
								JOINT rhand
								{
									OFFSET 0 0 0
CHANNELS 3 Zrotation Xrotation Yrotation
									JOINT RFingers
									{
OFFSET 0 -0.718190 -0.000000
CHANNELS 3 Zrotation Xrotation Yrotation
										End Site
										{
OFFSET 0 -0.579020 -0.000000
										}
									}
								}
								JOINT RThumb
								{
OFFSET 0 0.000000 0.000000
CHANNELS 3 Zrotation Xrotation Yrotation
									End Site
									{
OFFSET 0 -0.587860 0.587860
									}
								}
							}
						}
					}
				}
			}
		}
	}
}
MOTION
Frames: 4
Frame Time: 0.008333333333333333
-31.724900 14.992400 0.209900 -50.711100 80.810000 -42.389500 0.000000 0.000000 0.000000 -7.458800 -17.730800 -41.104800 7.865100 16.019100 52.075300 1.351800 5.126900 -24.347700 0.552100 -4.760100 -13.225400 0.000000 0.000000 0.000000 30.869000 -0.979800 29.531500 0.000000 -0.000000 0.000000 0.684000 -20.429100 7.970800 -2.347700 9.555600 -27.549200 4.522700 3.012500 14.012400 -1.938700 4.771300 5.981500 -5.257200 2.602600 -0.976500 7.106200 3.171700 -8.652700 -5.618300 3.816900 -10.268000 -3.007700 1.912900 -1.548700 -0.000000 -0.000000 0.000000 -0.750600 53.918100 -23.104100 118.437800 -56.712000 84.356000 39.921400 -23.188600 13.332900 0.000000 0.000000 0.000000 -7.125000 0.000000 0.000000 8.430200 12.944000 6.398800 -0.000000 -0.000000 0.000000 -20.579500 9.997600 39.449900 -137.926500 -49.251500 -100.003800 -35.504500 -41.760800 -22.594200 0.000000 0.000000 0.000000 7.125000 0.000000 -0.000000 -4.003500 2.961700 -3.800700
-31.565756 15.017819 0.210115 -51.424611 80.937808 -42.931868 0.000000 0.000000 0.000000 -7.205053 -18.272259 -41.001453 7.495891 15.695507 50.655187 1.377914 5.267070 -24.627098 0.597435 -4.931986 -13.717937 0.000000 0.000000 0.000000 30.781255 -1.174660 29.744755 0.000000 0.000000 0.000000 0.759531 -20.836173 7.647141 -2.139982 9.073326 -26.077736 4.463713 2.997956 13.643075 -1.944799 4.727965 5.964592 -5.198461 2.582651 -0.805754 7.164129 3.132827 -8.624620 -5.720853 3.755732 -10.266248 -3.056159 1.881299 -1.554485 0.000000 0.000000 0.000000 -0.964615 53.902548 -22.676549 118.326768 -56.739171 84.263099 39.608715 -23.101318 13.383557 0.000000 0.000000 0.000000 -7.125000 0.000000 0.000000 8.216400 12.945967 6.233376 0.000000 0.000000 0.000000 -20.708845 10.283196 39.824332 -138.017302 -49.201240 -100.072422 -35.565635 -42.162089 -22.987952 0.000000 0.000000 0.000000 7.125000 0.000000 0.000000 -3.964594 2.496003 -3.795097
-31.406613 15.043239 0.210330 -52.138121 81.065615 -43.474236 0.000000 0.000000 0.000000 -6.951305 -18.813718 -40.898107 7.126682 15.371914 49.235074 1.404027 5.407240 -24.906496 0.642770 -5.103873 -14.210475 0.000000 0.000000 0.000000 30.693511 -1.369520 29.958010 0.000000 0.000000 0.000000 0.835062 -21.243247 7.323482 -1.932264 8.591052 -24.606272 4.404726 2.983412 13.273751 -1.950897 4.684630 5.947685 -5.139722 2.562703 -0.635008 7.222058 3.093954 -8.596539 -5.823407 3.694563 -10.264496 -3.104618 1.849699 -1.560269 0.000000 0.000000 0.000000 -1.178630 53.886995 -22.248998 118.215736 -56.766343 84.170197 39.296031 -23.014036 13.434214 0.000000 0.000000 0.000000 -7.125000 0.000000 0.000000 8.002599 12.947934 6.067952 0.000000 0.000000 0.000000 -20.838189 10.568792 40.198763 -138.108105 -49.150979 -100.141045 -35.626771 -42.563378 -23.381705 0.000000 0.000000 0.000000 7.125000 0.000000 0.000000 -3.925688 2.030307 -3.789494
-31.247469 15.068658 0.210545 -52.851632 81.193423 -44.016604 0.000000 0.000000 0.000000 -6.697558 -19.355177 -40.794760 6.757473 15.048322 47.814961 1.430141 5.547410 -25.185894 0.688105 -5.275759 -14.703012 0.000000 0.000000 0.000000 30.605766 -1.564379 30.171265 0.000000 0.000000 0.000000 0.910593 -21.650320 6.999823 -1.724545 8.108779 -23.134808 4.345740 2.968867 12.904426 -1.956996 4.641294 5.930777 -5.080983 2.542754 -0.464262 7.279987 3.055082 -8.568459 -5.925960 3.633395 -10.262744 -3.153076 1.818098 -1.566054 0.000000 0.000000 0.000000 -1.392646 53.871443 -21.821447 118.104704 -56.793514 84.077296 38.983346 -22.926754 13.484871 0.000000 0.000000 0.000000 -7.125000 0.000000 0.000000 7.788799 12.949900 5.902527 0.000000 0.000000 0.000000 -20.967534 10.854388 40.573195 -138.198907 -49.100719 -100.209667 -35.687906 -42.964666 -23.775457 0.000000 0.000000 0.000000 7.125000 0.000000 0.000000 -3.886782 1.564610 -3.783891
